<?xml version="1.0" encoding="utf-8"?>
<!-- Generator: Adobe Illustrator 24.3.0, SVG Export Plug-In . SVG Version: 6.00 Build 0)  -->
<svg version="1.1" id="Capa_1" xmlns="http://www.w3.org/2000/svg" xmlns:xlink="http://www.w3.org/1999/xlink" x="0px" y="0px"
	 viewBox="0 0 512 512" style="enable-background:new 0 0 512 512;" xml:space="preserve">
<style type="text/css">
	.st0{fill:#FFFFFF;}
</style>
<g id="_x23_000000ff">
	<path class="st0" d="M496.7,44.7c2.3-2.4,5.5-4.3,8.9-3.4c3.1,0.5,5,3.3,6.4,5.9v4.4c-2.7,3.7-5.9,6.9-9.2,10.1
		c-39.5,39.5-79,79-118.5,118.5c4.5,6,9.8,11.3,13.8,17.7c18.8,26.6,29.5,58.6,31,91c1.6,33.3-6.5,67-23.3,95.7
		c-23.4,40.6-64,70.9-109.7,81.4c-51.7,12.8-109-0.2-149.9-34.2c-2.4-2-4.8-4-7.2-5.9c-10.2,9.8-20.1,19.9-30.1,29.9
		c-2.5,2.4-5.1,5.5-8.8,5.5c-3.5,0.2-6.2-2.4-8.6-4.7c-26.9-27.1-54-54-81-81c-3.7-3.8-7.9-7.2-10.4-11.8v-4.4
		c2.4-3.4,5.2-6.3,8.1-9.2c23.4-23.3,46.6-46.7,70-70c2.2-2.4,5.5-4.5,5.9-8.1c4.7-33.5,19.7-65.5,42.4-90.7
		c25.2-28.3,60.1-48.1,97.5-54.7c3.8-0.9,8.4-0.4,11.3-3.5c25.8-25.9,51.7-51.7,77.5-77.5c2-1.9,4.4-4,7.4-3.9
		c4.3-0.1,7.1,3.6,9.9,6.3c27.2,27.3,54.4,54.5,81.7,81.7C440,101.4,468.4,73.1,496.7,44.7 M263.2,118.2c-1.8,1.8-3.5,3.6-5.2,5.5
		c18.5,0.5,37.1,3.4,54.6,9.6c22.3,7.4,42.5,20,60.1,35.4c8.2-8.1,16.4-16.3,24.6-24.4c0.7-1.1,3.3-2.3,2-3.7
		c-12.4-12.6-25-25-37.4-37.5c-14-13.8-27.7-28-41.8-41.6C300.9,80.2,282.2,99.3,263.2,118.2 M240.5,140.7c-17,2-33.9,6.1-49.5,13.3
		c-43.1,19-76.4,58.7-87.6,104.4c-9.2,35.8-5.3,75,11.1,108.2c9.3,19.1,22.7,36.3,38.8,50.1c21.7,18.7,48.6,31.2,76.9,35.8
		c27.2,4.3,55.5,1.7,81.2-8.1c33.9-12.7,63-37.6,80.9-69.1c22.8-39.5,27-89,11.2-131.8c-15.7-44.2-52.5-80.4-97.1-95.1
		C285.4,141.1,262.7,138.9,240.5,140.7 M73.2,308.2c-16.2,16.2-32.3,32.4-48.5,48.5c-1.5,1.7-3.8,3-4.5,5.2
		c10.6,11,21.6,21.7,32.3,32.5c15.8,15.6,31.3,31.6,47.3,47.1c8.3-7.9,16.2-16.3,24.4-24.3c0.9-1,2.2-1.9,2.6-3.3
		c-4-5.6-9-10.4-12.7-16.2C97.6,374.6,87,347.3,83.6,319c-1.2-6.3-0.7-12.8-1.6-19.2C78.7,302.2,76.1,305.4,73.2,308.2z"/>
	<path class="st0" d="M241.5,157.6c30.6-2.9,62.2,4.1,88.3,20.5c21.9,13.7,40,33.4,51.5,56.5c11,22,16,46.9,14.4,71.4
		c-1.5,25.3-10.1,50.2-24.6,71.1c-11.9,16.9-27.3,31.4-45.3,41.7c-31.8,18.6-71.1,23.5-106.6,13.9c-26.6-7-50.9-22.3-68.9-43
		c-23.4-26.2-36-61.6-34.7-96.7c0.6-27.2,9.6-54,25.3-76.2c17-24.2,41.6-43,69.8-52.3C220.6,161,231,158.9,241.5,157.6 M174.1,204.1
		c18.4,18.6,36.9,36.9,55.3,55.5c0.9,0.7,2,2.5,3.3,1.4c4.6-2.8,9.8-4.5,14.9-6.2c-0.1-25.9,0-51.9,0-77.8c-0.1-1.1-0.1-2.3-0.3-3.4
		C220.5,175.4,194.2,186.1,174.1,204.1 M263.9,173.7c-0.1,27.1-0.1,54.2,0,81.3c5.6,1.4,10.9,3.8,16,6.5
		c18.6-18.3,36.8-36.9,55.3-55.3c0.9-0.9,2.5-2.4,0.8-3.4C316,185.8,290.3,175,263.9,173.7 M162.3,215.8
		c-17.7,20.3-28.6,46.3-30.2,73.2c21.3,0.3,42.7,0,64,0.1c5.9-0.1,11.8,0.3,17.7-0.3c1-5.6,3.5-10.7,6.3-15.7
		c-18.2-18.2-36.4-36.4-54.5-54.6C164.4,217.6,163.4,216.7,162.3,215.8 M346.8,217.8c-18.4,18.5-36.9,36.9-55.3,55.3
		c2.7,5.1,5.2,10.3,6.5,15.9c27.1,0.2,54.2,0.1,81.3,0c-1.3-26.4-12.1-52.1-29.2-72.2C349.1,215.2,347.7,217,346.8,217.8
		 M249.3,271.4c-10.8,2.5-19.3,12.4-20.1,23.5c-1.1,10.2,4.5,20.6,13.4,25.6c7.6,4.4,17.6,4.6,25.4,0.5c11.4-5.6,17.2-20,13.1-32
		C277.1,276,262.4,267.9,249.3,271.4 M132.1,305.3c1.3,27,12.5,53.2,30.1,73.6c19-18.5,37.6-37.5,56.5-56.2c2-1.3,0.1-3.3-0.6-4.8
		c-2.4-3.8-3.5-8.2-4.7-12.5C186.4,305.4,159.3,305.6,132.1,305.3 M298.2,305.4c-1.6,5.5-3.7,10.7-6.5,15.7c1.8,3.4,5.2,5.6,7.8,8.5
		c16.5,16.5,32.9,33,49.5,49.4c17.8-20,28.9-46.2,30.4-73l-0.6-0.5C351.8,305.3,325,305.5,298.2,305.4 M230.3,334.3
		c-18.7,18.9-37.7,37.4-56.2,56.4c20.3,17.7,46.5,28.9,73.6,30.2c-0.2-27.1,0-54.3-0.1-81.4c-4.3-1.1-8.7-2.3-12.5-4.6
		C233.6,334.1,231.6,332.3,230.3,334.3 M264.2,339.3c-0.2,2.2-0.4,4.4-0.4,6.7c0.1,25-0.1,50,0.1,75c26.9-1.6,53-12.5,73.3-30.2
		c-1.6-2.1-3.4-3.9-5.3-5.7c-17.4-17.3-34.6-34.7-52.1-52C274.9,335.8,269.8,338.4,264.2,339.3z"/>
</g>
</svg>
